PathFileType  4	(X/Y/Z) C:\Users\antoi\Documents\MyRepositories\mobilecap\ResultsAnalysis
DataRate	CameraRate	NumFrames	NumMarkers	Units	OrigDataRate	OrigDataStartFrame	OrigNumFrames
100.0	100.0	4	51	mm	100.0	187	299
Frame#	Time	r_knee			r_shank_antsup			r_ankle			r_calc			r_5meta			r_toe			L_knee			L_shank_antsup			L_ankle			L_calc			L_5meta			L_toe			r_sh2			r_sh3			r_sh4			L_sh2			L_sh3			r_thigh1			r_thigh2			r_thigh3			r_thigh4			r_thigh5			L_thigh1			L_thigh2			L_thigh3			L_thigh4			r.ASIS			r.PSIS			L.ASIS			L.PSIS			C7			R_Shoulder			L_Shoulder			R_Sternum			L_Sternum			R_humerus			R_elbow_med			R_elbow_lat			R_forearm			R_wrist_radius			R_wrist_ulna			L_humerus			L_elbow_med			L_elbow_lat			L_forearm			L_wrist_radius			L_wrist_ulna			R_HJC			L_HJC			R_HJC_reg			L_HJC_reg			
		X1	Y1	Z1	X2	Y2	Z2	X3	Y3	Z3	X4	Y4	Z4	X5	Y5	Z5	X6	Y6	Z6	X7	Y7	Z7	X8	Y8	Z8	X9	Y9	Z9	X10	Y10	Z10	X11	Y11	Z11	X12	Y12	Z12	X13	Y13	Z13	X14	Y14	Z14	X15	Y15	Z15	X16	Y16	Z16	X17	Y17	Z17	X18	Y18	Z18	X19	Y19	Z19	X20	Y20	Z20	X21	Y21	Z21	X22	Y22	Z22	X23	Y23	Z23	X24	Y24	Z24	X25	Y25	Z25	X26	Y26	Z26	X27	Y27	Z27	X28	Y28	Z28	X29	Y29	Z29	X30	Y30	Z30	X31	Y31	Z31	X32	Y32	Z32	X33	Y33	Z33	X34	Y34	Z34	X35	Y35	Z35	X36	Y36	Z36	X37	Y37	Z37	X38	Y38	Z38	X39	Y39	Z39	X40	Y40	Z40	X41	Y41	Z41	X42	Y42	Z42	X43	Y43	Z43	X44	Y44	Z44	X45	Y45	Z45	X46	Y46	Z46	X47	Y47	Z47	X48	Y48	Z48	X49	Y49	Z49	X50	Y50	Z50	X51	Y51	Z51	

187	1.86000000	-114.27060	394.08707	-369.71802	-104.83200	278.57409	-382.33784	-312.24636	96.08996	-396.00737	-375.40778	57.77422	-445.24375	-224.62932	40.79971	-344.78185	-180.45151	54.59237	-383.66143	-130.35136	411.89807	-829.79294	-103.34312	292.94309	-803.53455	-323.47044	102.13015	-818.72294	-379.29577	64.07894	-770.25118	-232.14950	36.40115	-866.29484	-180.15093	50.26402	-820.34386	-175.02559	190.37674	-396.44467	-155.86995	309.10754	-335.00955	-235.44469	232.76718	-356.38387	-150.23029	350.04851	-862.22682	-223.19414	251.00398	-869.96057	-315.87874	616.73260	-391.73236	-225.00777	567.98002	-383.67775	-227.99014	512.08879	-345.03467	-370.49546	522.85811	-361.59085	-267.70784	472.27809	-348.46081	-329.17362	616.61655	-778.76573	-204.90083	562.10128	-797.49873	-389.05969	524.67559	-804.82945	-259.98521	469.41177	-828.50050	-309.48741	630.46352	-451.60642	-462.49314	736.06335	-517.90829	-309.05155	631.51484	-699.07137	-462.89279	743.30416	-631.66994	-190.82204	1091.52989	-557.90825	-143.12149	1028.53444	-405.04440	-129.55224	1027.19232	-710.16456	-96.48366	987.25483	-537.67194	-95.66779	983.56877	-578.19914	-164.34029	907.77254	-346.08954	-288.66580	729.38625	-367.60826	-258.83128	742.44895	-296.33498	-215.12621	620.05893	-271.55029	-185.68177	519.28092	-264.04200	-219.71410	512.51371	-250.56760	-132.66015	896.24425	-779.76126	-201.59901	699.73617	-769.59383	-185.05019	726.82229	-838.47514	-134.67226	644.27266	-873.96241	-96.79170	515.78946	-890.54909	-124.43920	510.84648	-908.23190	-418.90267	596.75405	-478.26105	-416.43488	595.04903	-667.61442	-401.84465	584.80619	-488.80287	-402.41847	595.18041	-651.80282	
188	1.87000000	-111.13349	392.98886	-369.60260	-101.79855	277.18500	-383.27259	-311.38137	96.88402	-396.36517	-374.89729	58.60679	-446.29197	-224.45210	41.11395	-345.08035	-180.09122	54.34972	-384.05231	-125.98517	412.29570	-831.49720	-100.84464	292.46712	-802.96323	-323.38688	103.61503	-819.39645	-378.51381	65.21931	-769.64169	-231.86542	36.49761	-866.36645	-179.76373	50.27719	-820.38357	-172.80310	189.47453	-397.48058	-152.17056	307.71984	-336.13494	-232.63236	232.30092	-356.92519	-147.70128	348.83768	-861.02034	-221.28060	251.87557	-869.73037	-309.99597	615.39788	-390.94670	-219.66013	566.93812	-381.68934	-222.50771	509.21236	-345.67591	-365.46080	522.72037	-360.09980	-262.64896	469.63143	-348.93776	-325.33921	615.65097	-778.88219	-202.20659	560.62630	-798.92001	-385.35367	523.39996	-802.86597	-256.44676	468.04009	-826.69000	-305.94290	630.13008	-451.22636	-459.22959	735.90394	-515.91613	-305.53046	632.40399	-697.84662	-460.32530	743.48043	-630.29682	-190.92827	1094.55120	-556.16950	-142.09732	1032.09274	-405.67871	-129.24367	1031.76262	-708.41914	-95.63498	990.65611	-536.15617	-94.77788	987.36125	-577.13079	-157.40563	913.67746	-343.27965	-269.31273	726.95736	-361.56854	-242.13949	743.89215	-289.49979	-183.01104	628.27501	-264.04205	-140.02977	532.34204	-257.14929	-172.62288	521.01538	-243.39282	-124.37585	903.62840	-779.27320	-172.85442	703.09375	-767.50158	-162.99262	730.96299	-838.97884	-104.11042	653.59481	-874.45406	-52.17768	530.39022	-890.50601	-79.58311	522.45495	-908.09467	-415.25774	596.32031	-477.40508	-413.07706	595.55312	-666.76940	-397.74641	585.17982	-487.82626	-399.30055	595.93590	-650.23750	
189	1.88000000	-108.26323	391.73906	-370.53782	-98.98158	276.18255	-384.13536	-310.25278	97.07083	-397.99795	-374.28348	59.46494	-447.63910	-224.27679	41.45519	-345.48506	-179.76144	54.23769	-384.38054	-121.83366	412.46069	-831.37430	-98.28396	292.14178	-802.41417	-322.60022	104.69387	-819.77906	-377.72553	66.79109	-769.41120	-231.62148	36.64571	-866.35572	-179.22928	50.26466	-820.29147	-170.53184	188.76618	-398.48957	-149.06237	306.67037	-337.53630	-230.13701	232.18360	-357.82065	-144.12815	347.61188	-857.89800	-219.00686	252.44941	-869.20065	-304.38179	615.19232	-390.03668	-214.50348	566.98582	-379.95170	-217.40709	506.49229	-345.65955	-360.58753	522.88236	-359.44394	-258.15629	468.16239	-349.27547	-320.70095	615.48565	-778.53591	-197.73215	560.05865	-798.81179	-381.33933	523.55812	-802.25225	-252.66517	467.33300	-825.73596	-301.25201	631.86310	-450.17372	-456.10507	736.37193	-513.71335	-302.34600	634.52398	-696.59795	-457.84273	744.09674	-629.04108	-191.97312	1098.47190	-553.87645	-141.31282	1037.38391	-405.76498	-129.61927	1038.34536	-706.24864	-95.15170	995.53777	-534.76434	-94.28158	992.61789	-576.17696	-151.14290	921.18141	-340.20894	-250.01061	727.80298	-354.51187	-226.00722	748.01372	-282.03447	-151.30231	641.03342	-256.53276	-95.15918	552.33600	-251.10433	-125.35147	536.42403	-236.55684	-116.66151	913.28977	-778.55111	-146.27746	709.86220	-766.85675	-141.84176	738.40962	-838.81421	-74.39524	667.08589	-874.65001	-9.21409	551.09370	-890.20749	-35.42244	539.46567	-907.43569	-410.58001	597.17489	-475.88726	-409.28973	596.57781	-665.25939	-392.94008	586.22643	-486.32715	-395.38233	597.09764	-648.59665	
190	1.89000000	-104.67576	389.93641	-372.21373	-96.42747	275.42504	-385.08119	-309.01285	97.27096	-399.94087	-373.42895	60.29626	-449.04889	-224.09487	41.75520	-345.99540	-179.43243	54.17344	-384.68978	-118.51737	412.19347	-830.88693	-96.09120	292.04280	-801.93217	-321.43610	105.79007	-819.95974	-376.97835	68.92144	-769.74528	-231.34319	36.82397	-866.34294	-178.72554	50.18543	-820.16357	-168.43920	188.31158	-399.31031	-146.54435	306.34196	-338.35382	-228.06531	232.05939	-359.07072	-140.85324	347.58308	-856.51025	-216.61765	253.00472	-868.80107	-299.14455	615.70886	-389.07276	-209.06689	567.09161	-379.76366	-212.89403	505.55390	-345.40723	-356.00535	523.55960	-359.58748	-254.21155	468.41522	-349.11425	-315.54874	616.33454	-777.66936	-192.66536	560.20993	-798.03699	-377.12918	525.11357	-802.10033	-248.79863	467.54585	-824.73833	-296.33321	634.89951	-448.91972	-452.89522	737.97500	-512.03386	-299.08554	638.05252	-695.64772	-455.30666	745.42491	-627.76973	-193.21154	1103.60413	-552.30124	-141.11815	1044.46128	-405.51919	-130.61079	1046.65197	-703.84615	-94.93265	1001.93761	-533.50804	-94.09581	999.27157	-575.32452	-145.93309	930.49305	-336.46797	-231.06325	731.31676	-345.81986	-209.83136	755.11086	-273.47654	-119.79437	658.63986	-249.15317	-51.53875	579.06607	-246.34795	-78.39281	559.04894	-230.30808	-109.69056	925.13144	-777.68985	-123.04114	719.82835	-768.44971	-121.50108	749.73390	-839.13652	-45.34250	684.86075	-874.62724	32.21327	577.23334	-888.86826	7.90101	561.98946	-905.76386	-405.59882	599.17527	-474.47112	-405.19117	598.62373	-663.84779	-387.98470	588.74538	-484.53663	-391.37343	599.20450	-647.02960	
